<?xml version="1.0" encoding="UTF-8" standalone="no"?>
<!-- Generated by SVGo -->

<svg
   xmlns:dc="http://purl.org/dc/elements/1.1/"
   xmlns:cc="http://creativecommons.org/ns#"
   xmlns:rdf="http://www.w3.org/1999/02/22-rdf-syntax-ns#"
   xmlns:svg="http://www.w3.org/2000/svg"
   xmlns="http://www.w3.org/2000/svg"
   xmlns:sodipodi="http://sodipodi.sourceforge.net/DTD/sodipodi-0.dtd"
   xmlns:inkscape="http://www.inkscape.org/namespaces/inkscape"
   width="136.452mm"
   height="98.352mm"
   viewBox="0.000 0.000 136.452 98.352"
   version="1.1"
   id="svg4659"
   sodipodi:docname="levinson-switch.svg"
   inkscape:version="0.92.1 r15381">
  <metadata
     id="metadata4665">
    <rdf:RDF>
      <cc:Work
         rdf:about="">
        <dc:format>image/svg+xml</dc:format>
        <dc:type
           rdf:resource="http://purl.org/dc/dcmitype/StillImage" />
      </cc:Work>
    </rdf:RDF>
  </metadata>
  <defs
     id="defs4663" />
  <sodipodi:namedview
     pagecolor="#ffffff"
     bordercolor="#666666"
     borderopacity="1"
     objecttolerance="10"
     gridtolerance="10"
     guidetolerance="10"
     inkscape:pageopacity="0"
     inkscape:pageshadow="2"
     inkscape:window-width="1617"
     inkscape:window-height="925"
     id="namedview4661"
     showgrid="false"
     inkscape:zoom="1.5575641"
     inkscape:cx="235.11015"
     inkscape:cy="210.86141"
     inkscape:window-x="1810"
     inkscape:window-y="47"
     inkscape:window-maximized="0"
     inkscape:current-layer="svg4659" />
  <polygon
     points="128.92,5.037 129.152,5.083 129.378,5.147 129.599,5.229 129.813,5.327 130.019,5.443 130.215,5.573 130.4,5.719 130.573,5.879 130.733,6.052 130.878,6.237 131.009,6.433 131.125,6.639 131.223,6.852 131.305,7.073 131.369,7.3 131.415,7.531 131.442,7.765 131.452,8.001 131.451,90.352 131.442,90.587 131.415,90.821 131.369,91.052 131.305,91.279 131.223,91.5 131.125,91.713 131.009,91.919 130.878,92.115 130.733,92.3 130.573,92.473 130.4,92.633 130.215,92.779 130.019,92.909 129.813,93.025 129.599,93.123 129.378,93.205 129.152,93.269 128.92,93.315 128.687,93.342 128.45,93.352 8.001,93.352 7.765,93.342 7.531,93.315 7.3,93.269 7.073,93.205 6.852,93.123 6.639,93.025 6.433,92.909 6.237,92.779 6.052,92.633 5.879,92.473 5.719,92.3 5.573,92.115 5.443,91.919 5.327,91.713 5.229,91.5 5.147,91.279 5.083,91.052 5.037,90.821 5.01,90.587 5,90.351 5.001,8.001 5.01,7.765 5.037,7.531 5.083,7.3 5.147,7.073 5.229,6.852 5.327,6.639 5.443,6.433 5.573,6.237 5.719,6.052 5.879,5.879 6.052,5.719 6.237,5.573 6.433,5.443 6.639,5.327 6.852,5.229 7.073,5.147 7.3,5.083 7.531,5.037 7.765,5.01 8.001,5 128.45,5.001 128.687,5.01 "
     style="fill:none;stroke:#0000ff;stroke-width:0.038;stroke-miterlimit:4;stroke-dasharray:none"
     id="polygon4595"
     transform="rotate(-180,68.226,49.176)" />
  <polygon
     points="127.527,89.659 127.378,89.952 127.326,90.277 127.378,90.601 127.527,90.894 127.759,91.126 128.051,91.275 128.376,91.327 128.7,91.275 128.994,91.126 129.226,90.894 129.375,90.601 129.426,90.277 129.375,89.952 129.226,89.659 128.994,89.427 128.7,89.278 128.376,89.227 128.051,89.278 127.759,89.427 "
     style="fill:none;stroke:#0000ff;stroke-width:0.01mm"
     id="polygon4597"
     transform="rotate(-180,68.226,49.176)" />
  <polygon
     points="67.377,89.659 67.227,89.952 67.176,90.277 67.227,90.601 67.377,90.894 67.609,91.126 67.902,91.275 68.226,91.327 68.55,91.275 68.843,91.126 69.075,90.894 69.225,90.601 69.276,90.277 69.225,89.952 69.075,89.659 68.843,89.427 68.55,89.278 68.226,89.227 67.902,89.278 67.609,89.427 "
     style="fill:none;stroke:#0000ff;stroke-width:0.01mm"
     id="polygon4599"
     transform="rotate(-180,68.226,49.176)" />
  <polygon
     points="7.226,89.659 7.077,89.952 7.026,90.277 7.077,90.601 7.226,90.894 7.458,91.126 7.751,91.275 8.075,91.327 8.4,91.275 8.693,91.126 8.925,90.894 9.074,90.601 9.126,90.277 9.074,89.952 8.925,89.659 8.693,89.427 8.4,89.278 8.075,89.227 7.751,89.278 7.458,89.427 "
     style="fill:none;stroke:#0000ff;stroke-width:0.01mm"
     id="polygon4601"
     transform="rotate(-180,68.226,49.176)" />
  <polygon
     points="12.876,71.426 12.876,84.076 13.676,84.076 13.676,84.676 27.526,84.676 27.526,84.076 28.326,84.076 28.326,71.426 27.526,71.426 27.526,70.826 13.676,70.826 13.676,71.426 "
     style="fill:none;stroke:#0000ff;stroke-width:0.01mm"
     id="polygon4603"
     transform="rotate(-180,68.226,49.176)" />
  <polygon
     points="31.926,71.426 31.926,84.076 32.726,84.076 32.726,84.676 46.576,84.676 46.576,84.076 47.376,84.076 47.376,71.426 46.576,71.426 46.576,70.826 32.726,70.826 32.726,71.426 "
     style="fill:none;stroke:#0000ff;stroke-width:0.01mm"
     id="polygon4605"
     transform="rotate(-180,68.226,49.176)" />
  <polygon
     points="50.976,71.426 50.976,84.076 51.776,84.076 51.776,84.676 65.626,84.676 65.626,84.076 66.426,84.076 66.426,71.426 65.626,71.426 65.626,70.826 51.776,70.826 51.776,71.426 "
     style="fill:none;stroke:#0000ff;stroke-width:0.01mm"
     id="polygon4607"
     transform="rotate(-180,68.226,49.176)" />
  <polygon
     points="70.026,71.426 70.026,84.076 70.826,84.076 70.826,84.676 84.676,84.676 84.676,84.076 85.476,84.076 85.476,71.426 84.676,71.426 84.676,70.826 70.826,70.826 70.826,71.426 "
     style="fill:none;stroke:#0000ff;stroke-width:0.01mm"
     id="polygon4609"
     transform="rotate(-180,68.226,49.176)" />
  <polygon
     points="89.076,71.426 89.076,84.076 89.876,84.076 89.876,84.676 103.726,84.676 103.726,84.076 104.525,84.076 104.525,71.426 103.726,71.426 103.726,70.826 89.876,70.826 89.876,71.426 "
     style="fill:none;stroke:#0000ff;stroke-width:0.01mm"
     id="polygon4611"
     transform="rotate(-180,68.226,49.176)" />
  <polygon
     points="108.126,71.426 108.126,84.076 108.926,84.076 108.926,84.676 122.775,84.676 122.775,84.076 123.575,84.076 123.575,71.426 122.775,71.426 122.775,70.826 108.926,70.826 108.926,71.426 "
     style="fill:none;stroke:#0000ff;stroke-width:0.01mm"
     id="polygon4613"
     transform="rotate(-180,68.226,49.176)" />
  <polygon
     points="12.876,52.376 12.876,65.026 13.676,65.026 13.676,65.626 27.526,65.626 27.526,65.026 28.326,65.026 28.326,52.376 27.526,52.376 27.526,51.776 13.676,51.776 13.676,52.376 "
     style="fill:none;stroke:#0000ff;stroke-width:0.01mm"
     id="polygon4615"
     transform="rotate(-180,68.226,49.176)" />
  <polygon
     points="31.926,52.376 31.926,65.026 32.726,65.026 32.726,65.626 46.576,65.626 46.576,65.026 47.376,65.026 47.376,52.376 46.576,52.376 46.576,51.776 32.726,51.776 32.726,52.376 "
     style="fill:none;stroke:#0000ff;stroke-width:0.01mm"
     id="polygon4617"
     transform="rotate(-180,68.226,49.176)" />
  <polygon
     points="50.976,52.376 50.976,65.026 51.776,65.026 51.776,65.626 65.626,65.626 65.626,65.026 66.426,65.026 66.426,52.376 65.626,52.376 65.626,51.776 51.776,51.776 51.776,52.376 "
     style="fill:none;stroke:#0000ff;stroke-width:0.01mm"
     id="polygon4619"
     transform="rotate(-180,68.226,49.176)" />
  <polygon
     points="70.026,52.376 70.026,65.026 70.826,65.026 70.826,65.626 84.676,65.626 84.676,65.026 85.476,65.026 85.476,52.376 84.676,52.376 84.676,51.776 70.826,51.776 70.826,52.376 "
     style="fill:none;stroke:#0000ff;stroke-width:0.01mm"
     id="polygon4621"
     transform="rotate(-180,68.226,49.176)" />
  <polygon
     points="89.076,52.376 89.076,65.026 89.876,65.026 89.876,65.626 103.726,65.626 103.726,65.026 104.525,65.026 104.525,52.376 103.726,52.376 103.726,51.776 89.876,51.776 89.876,52.376 "
     style="fill:none;stroke:#0000ff;stroke-width:0.01mm"
     id="polygon4623"
     transform="rotate(-180,68.226,49.176)" />
  <polygon
     points="108.126,52.376 108.126,65.026 108.926,65.026 108.926,65.626 122.775,65.626 122.775,65.026 123.575,65.026 123.575,52.376 122.775,52.376 122.775,51.776 108.926,51.776 108.926,52.376 "
     style="fill:none;stroke:#0000ff;stroke-width:0.01mm"
     id="polygon4625"
     transform="rotate(-180,68.226,49.176)" />
  <polygon
     points="127.527,48.559 127.378,48.852 127.326,49.176 127.378,49.5 127.527,49.793 127.759,50.025 128.051,50.175 128.376,50.226 128.7,50.175 128.994,50.025 129.226,49.793 129.375,49.5 129.426,49.176 129.375,48.852 129.226,48.559 128.994,48.327 128.7,48.177 128.376,48.126 128.051,48.177 127.759,48.327 "
     style="fill:none;stroke:#0000ff;stroke-width:0.01mm"
     id="polygon4627"
     transform="rotate(-180,68.226,49.176)" />
  <polygon
     points="7.226,48.559 7.077,48.852 7.026,49.176 7.077,49.5 7.226,49.793 7.458,50.025 7.751,50.175 8.075,50.226 8.4,50.175 8.693,50.025 8.925,49.793 9.074,49.5 9.126,49.176 9.074,48.852 8.925,48.559 8.693,48.327 8.4,48.177 8.075,48.126 7.751,48.177 7.458,48.327 "
     style="fill:none;stroke:#0000ff;stroke-width:0.01mm"
     id="polygon4629"
     transform="rotate(-180,68.226,49.176)" />
  <polygon
     points="12.876,33.326 12.876,45.976 13.676,45.976 13.676,46.576 27.526,46.576 27.526,45.976 28.326,45.976 28.326,33.326 27.526,33.326 27.526,32.726 13.676,32.726 13.676,33.326 "
     style="fill:none;stroke:#0000ff;stroke-width:0.01mm"
     id="polygon4631"
     transform="rotate(-180,68.226,49.176)" />
  <polygon
     points="31.926,33.326 31.926,45.976 32.726,45.976 32.726,46.576 46.576,46.576 46.576,45.976 47.376,45.976 47.376,33.326 46.576,33.326 46.576,32.726 32.726,32.726 32.726,33.326 "
     style="fill:none;stroke:#0000ff;stroke-width:0.01mm"
     id="polygon4633"
     transform="rotate(-180,68.226,49.176)" />
  <polygon
     points="50.976,33.326 50.976,45.976 51.776,45.976 51.776,46.576 65.626,46.576 65.626,45.976 66.426,45.976 66.426,33.326 65.626,33.326 65.626,32.726 51.776,32.726 51.776,33.326 "
     style="fill:none;stroke:#0000ff;stroke-width:0.01mm"
     id="polygon4635"
     transform="rotate(-180,68.226,49.176)" />
  <polygon
     points="70.026,33.326 70.026,45.976 70.826,45.976 70.826,46.576 84.676,46.576 84.676,45.976 85.476,45.976 85.476,33.326 84.676,33.326 84.676,32.726 70.826,32.726 70.826,33.326 "
     style="fill:none;stroke:#0000ff;stroke-width:0.01mm"
     id="polygon4637"
     transform="rotate(-180,68.226,49.176)" />
  <polygon
     points="89.076,33.326 89.076,45.976 89.876,45.976 89.876,46.576 103.726,46.576 103.726,45.976 104.525,45.976 104.525,33.326 103.726,33.326 103.726,32.726 89.876,32.726 89.876,33.326 "
     style="fill:none;stroke:#0000ff;stroke-width:0.01mm"
     id="polygon4639"
     transform="rotate(-180,68.226,49.176)" />
  <polygon
     points="108.126,33.326 108.126,45.976 108.926,45.976 108.926,46.576 122.775,46.576 122.775,45.976 123.575,45.976 123.575,33.326 122.775,33.326 122.775,32.726 108.926,32.726 108.926,33.326 "
     style="fill:none;stroke:#0000ff;stroke-width:0.01mm"
     id="polygon4641"
     transform="rotate(-180,68.226,49.176)" />
  <polygon
     points="12.876,14.276 12.876,26.926 13.676,26.926 13.676,27.526 16.651,27.526 16.651,28.276 19.801,28.276 19.801,27.526 40.451,27.526 40.451,28.276 43.601,28.276 43.601,27.526 46.575,27.526 46.575,26.926 47.376,26.926 47.376,14.276 46.575,14.276 46.575,13.676 13.676,13.676 13.676,14.276 "
     style="fill:none;stroke:#0000ff;stroke-width:0.01mm"
     id="polygon4643"
     transform="rotate(-180,68.226,49.176)" />
  <polygon
     points="50.976,14.276 50.976,26.926 51.776,26.926 51.776,27.526 65.626,27.526 65.626,26.926 66.426,26.926 66.426,14.276 65.626,14.276 65.626,13.676 51.776,13.676 51.776,14.276 "
     style="fill:none;stroke:#0000ff;stroke-width:0.01mm"
     id="polygon4645"
     transform="rotate(-180,68.226,49.176)" />
  <polygon
     points="70.026,14.276 70.026,26.926 70.826,26.926 70.826,27.526 84.676,27.526 84.676,26.926 85.476,26.926 85.476,14.276 84.676,14.276 84.676,13.676 70.826,13.676 70.826,14.276 "
     style="fill:none;stroke:#0000ff;stroke-width:0.01mm"
     id="polygon4647"
     transform="rotate(-180,68.226,49.176)" />
  <polygon
     points="89.076,14.276 89.076,26.926 89.876,26.926 89.876,27.526 103.726,27.526 103.726,26.926 104.525,26.926 104.525,14.276 103.726,14.276 103.726,13.676 89.876,13.676 89.876,14.276 "
     style="fill:none;stroke:#0000ff;stroke-width:0.01mm"
     id="polygon4649"
     transform="rotate(-180,68.226,49.176)" />
  <polygon
     points="108.126,14.276 108.126,26.926 108.926,26.926 108.926,27.526 122.775,27.526 122.775,26.926 123.575,26.926 123.575,14.276 122.775,14.276 122.775,13.676 108.926,13.676 108.926,14.276 "
     style="fill:none;stroke:#0000ff;stroke-width:0.01mm"
     id="polygon4651"
     transform="rotate(-180,68.226,49.176)" />
  <polygon
     points="67.377,7.458 67.227,7.751 67.176,8.075 67.227,8.4 67.377,8.693 67.609,8.925 67.902,9.074 68.226,9.126 68.55,9.074 68.843,8.925 69.075,8.693 69.225,8.4 69.276,8.075 69.225,7.751 69.075,7.458 68.843,7.226 68.55,7.077 68.226,7.025 67.902,7.077 67.609,7.226 "
     style="fill:none;stroke:#0000ff;stroke-width:0.01mm"
     id="polygon4653"
     transform="rotate(-180,68.226,49.176)" />
  <polygon
     points="127.527,7.458 127.378,7.751 127.326,8.075 127.378,8.4 127.527,8.693 127.759,8.925 128.051,9.074 128.376,9.126 128.7,9.074 128.994,8.925 129.226,8.693 129.375,8.4 129.426,8.075 129.375,7.751 129.226,7.458 128.994,7.226 128.7,7.077 128.376,7.025 128.051,7.077 127.759,7.226 "
     style="fill:none;stroke:#0000ff;stroke-width:0.01mm"
     id="polygon4655"
     transform="rotate(-180,68.226,49.176)" />
  <polygon
     points="7.226,7.458 7.077,7.751 7.026,8.075 7.077,8.4 7.226,8.693 7.458,8.925 7.751,9.074 8.075,9.126 8.4,9.074 8.693,8.925 8.925,8.693 9.074,8.4 9.126,8.075 9.074,7.751 8.925,7.458 8.693,7.226 8.4,7.077 8.075,7.026 7.751,7.077 7.458,7.226 "
     style="fill:none;stroke:#0000ff;stroke-width:0.01mm"
     id="polygon4657"
     transform="rotate(-180,68.226,49.176)" />
</svg>
