<?xml version="1.0"?>
<!-- Generated by SVGo -->
<svg width="136.452mm" height="98.352mm"
     viewBox="0.000 0.000 136.452 98.352"
     xmlns="http://www.w3.org/2000/svg" 
     xmlns:xlink="http://www.w3.org/1999/xlink">
<polygon points="128.450,5.001 128.687,5.010 128.920,5.037 129.152,5.083 129.378,5.147 129.599,5.229 129.813,5.327 130.019,5.443 130.215,5.573 130.400,5.719 130.573,5.879 130.733,6.052 130.878,6.237 131.009,6.433 131.125,6.639 131.223,6.852 131.305,7.073 131.369,7.300 131.415,7.531 131.442,7.765 131.452,8.001 131.451,90.352 131.442,90.587 131.415,90.821 131.369,91.052 131.305,91.279 131.223,91.500 131.125,91.713 131.009,91.919 130.878,92.115 130.733,92.300 130.573,92.473 130.400,92.633 130.215,92.779 130.019,92.909 129.813,93.025 129.599,93.123 129.378,93.205 129.152,93.269 128.920,93.315 128.687,93.342 128.450,93.352 8.001,93.352 7.765,93.342 7.531,93.315 7.300,93.269 7.073,93.205 6.852,93.123 6.639,93.025 6.433,92.909 6.237,92.779 6.052,92.633 5.879,92.473 5.719,92.300 5.573,92.115 5.443,91.919 5.327,91.713 5.229,91.500 5.147,91.279 5.083,91.052 5.037,90.821 5.010,90.587 5.000,90.351 5.001,8.001 5.010,7.765 5.037,7.531 5.083,7.300 5.147,7.073 5.229,6.852 5.327,6.639 5.443,6.433 5.573,6.237 5.719,6.052 5.879,5.879 6.052,5.719 6.237,5.573 6.433,5.443 6.639,5.327 6.852,5.229 7.073,5.147 7.300,5.083 7.531,5.037 7.765,5.010 8.001,5.000" style="fill:none;stroke-width:0.010000mm;stroke:blue"/>
<polygon points="128.051,89.278 127.759,89.427 127.527,89.659 127.378,89.952 127.326,90.277 127.378,90.601 127.527,90.894 127.759,91.126 128.051,91.275 128.376,91.327 128.700,91.275 128.994,91.126 129.226,90.894 129.375,90.601 129.426,90.277 129.375,89.952 129.226,89.659 128.994,89.427 128.700,89.278 128.376,89.227" style="fill:none;stroke-width:0.010000mm;stroke:blue"/>
<polygon points="67.902,89.278 67.609,89.427 67.377,89.659 67.227,89.952 67.176,90.277 67.227,90.601 67.377,90.894 67.609,91.126 67.902,91.275 68.226,91.327 68.550,91.275 68.843,91.126 69.075,90.894 69.225,90.601 69.276,90.277 69.225,89.952 69.075,89.659 68.843,89.427 68.550,89.278 68.226,89.227" style="fill:none;stroke-width:0.010000mm;stroke:blue"/>
<polygon points="7.751,89.278 7.458,89.427 7.226,89.659 7.077,89.952 7.026,90.277 7.077,90.601 7.226,90.894 7.458,91.126 7.751,91.275 8.075,91.327 8.400,91.275 8.693,91.126 8.925,90.894 9.074,90.601 9.126,90.277 9.074,89.952 8.925,89.659 8.693,89.427 8.400,89.278 8.075,89.227" style="fill:none;stroke-width:0.010000mm;stroke:blue"/>
<polygon points="128.051,48.177 127.759,48.327 127.527,48.559 127.378,48.852 127.326,49.176 127.378,49.500 127.527,49.793 127.759,50.025 128.051,50.175 128.376,50.226 128.700,50.175 128.994,50.025 129.226,49.793 129.375,49.500 129.426,49.176 129.375,48.852 129.226,48.559 128.994,48.327 128.700,48.177 128.376,48.126" style="fill:none;stroke-width:0.010000mm;stroke:blue"/>
<polygon points="7.751,48.177 7.458,48.327 7.226,48.559 7.077,48.852 7.026,49.176 7.077,49.500 7.226,49.793 7.458,50.025 7.751,50.175 8.075,50.226 8.400,50.175 8.693,50.025 8.925,49.793 9.074,49.500 9.126,49.176 9.074,48.852 8.925,48.559 8.693,48.327 8.400,48.177 8.075,48.126" style="fill:none;stroke-width:0.010000mm;stroke:blue"/>
<polygon points="67.902,7.077 67.609,7.226 67.377,7.458 67.227,7.751 67.176,8.075 67.227,8.400 67.377,8.693 67.609,8.925 67.902,9.074 68.226,9.126 68.550,9.074 68.843,8.925 69.075,8.693 69.225,8.400 69.276,8.075 69.225,7.751 69.075,7.458 68.843,7.226 68.550,7.077 68.226,7.025" style="fill:none;stroke-width:0.010000mm;stroke:blue"/>
<polygon points="128.051,7.077 127.759,7.226 127.527,7.458 127.378,7.751 127.326,8.075 127.378,8.400 127.527,8.693 127.759,8.925 128.051,9.074 128.376,9.126 128.700,9.074 128.994,8.925 129.226,8.693 129.375,8.400 129.426,8.075 129.375,7.751 129.226,7.458 128.994,7.226 128.700,7.077 128.376,7.025" style="fill:none;stroke-width:0.010000mm;stroke:blue"/>
<polygon points="7.751,7.077 7.458,7.226 7.226,7.458 7.077,7.751 7.026,8.075 7.077,8.400 7.226,8.693 7.458,8.925 7.751,9.074 8.075,9.126 8.400,9.074 8.693,8.925 8.925,8.693 9.074,8.400 9.126,8.075 9.074,7.751 8.925,7.458 8.693,7.226 8.400,7.077 8.075,7.026" style="fill:none;stroke-width:0.010000mm;stroke:blue"/>
</svg>
